<svg width="24" height="24" viewBox="0 0 24 24" fill="none" xmlns="http://www.w3.org/2000/svg">
<path fill-rule="evenodd" clip-rule="evenodd" d="M12 22C6.477 22 2 17.523 2 12C2 6.477 6.477 2 12 2C17.523 2 22 6.477 22 12C21.994 17.52 17.52 21.994 12.001 22H12ZM12 4C7.582 4 4 7.582 4 12C4 16.418 7.582 20 12 20C16.418 20 20 16.418 20 12C19.995 7.584 16.416 4.005 12 4H11.999H12ZM13 12V8C13 7.448 12.552 7 12 7C11.448 7 11 7.448 11 8V12C11 12.552 11.448 13 12 13C12.552 13 13 12.552 13 12ZM12.2 16.98C12.268 16.968 12.328 16.947 12.384 16.918L12.38 16.92C12.449 16.896 12.508 16.866 12.563 16.828L12.56 16.83C12.61 16.79 12.66 16.75 12.71 16.71C12.75 16.66 12.79 16.61 12.83 16.56C12.866 16.508 12.896 16.449 12.918 16.385L12.92 16.38C12.947 16.328 12.968 16.268 12.979 16.204L12.98 16.2C12.99 16.142 12.997 16.073 13 16.003V16C12.998 15.928 12.991 15.859 12.979 15.792L12.98 15.8C12.968 15.732 12.947 15.672 12.918 15.616L12.92 15.62C12.896 15.551 12.866 15.492 12.828 15.437L12.83 15.44C12.79 15.39 12.75 15.34 12.71 15.29C12.66 15.25 12.61 15.21 12.56 15.17C12.508 15.134 12.449 15.104 12.385 15.082L12.38 15.08C12.328 15.053 12.268 15.032 12.204 15.021L12.2 15.02C12.141 15.007 12.073 15 12.004 15C11.865 15 11.733 15.03 11.614 15.083L11.62 15.081C11.493 15.135 11.384 15.206 11.289 15.292L11.29 15.291C11.25 15.341 11.21 15.391 11.17 15.441C11.134 15.493 11.104 15.552 11.082 15.616L11.08 15.621C11.053 15.673 11.032 15.733 11.021 15.797L11.02 15.801C11.009 15.86 11.002 15.929 11 15.999V16.001C11.002 16.073 11.009 16.142 11.021 16.21L11.02 16.201C11.032 16.269 11.053 16.329 11.082 16.385L11.08 16.381C11.104 16.45 11.134 16.509 11.172 16.564L11.17 16.561C11.21 16.611 11.25 16.661 11.29 16.711C11.475 16.887 11.724 16.997 11.999 17.001H12C12.073 16.998 12.142 16.991 12.209 16.98L12.2 16.981V16.98Z" fill="#4E4B66"/>
</svg>
